<?xml version="1.0" encoding="UTF-8" standalone="no"?>
<!-- Created with Inkscape (http://www.inkscape.org/) -->

<svg
   width="277"
   height="175"
   viewBox="0 0 73.289575 46.302078"
   version="1.1"
   id="svg1"
   inkscape:version="1.3.2 (091e20e, 2023-11-25, custom)"
   sodipodi:docname="flag.svg"
   inkscape:export-filename="flag.png"
   inkscape:export-xdpi="96"
   inkscape:export-ydpi="96"
   xmlns:inkscape="http://www.inkscape.org/namespaces/inkscape"
   xmlns:sodipodi="http://sodipodi.sourceforge.net/DTD/sodipodi-0.dtd"
   xmlns="http://www.w3.org/2000/svg"
   xmlns:svg="http://www.w3.org/2000/svg">
  <sodipodi:namedview
     id="namedview1"
     pagecolor="#ffffff"
     bordercolor="#ffffff"
     borderopacity="1"
     inkscape:showpageshadow="0"
     inkscape:pageopacity="0"
     inkscape:pagecheckerboard="1"
     inkscape:deskcolor="#d1d1d1"
     inkscape:document-units="mm"
     showborder="true"
     inkscape:export-bgcolor="#ffffffff"
     inkscape:zoom="5.6568543"
     inkscape:cx="112.60675"
     inkscape:cy="99.260114"
     inkscape:window-width="3440"
     inkscape:window-height="1369"
     inkscape:window-x="-8"
     inkscape:window-y="-8"
     inkscape:window-maximized="1"
     inkscape:current-layer="layer1" />
  <defs
     id="defs1" />
  <g
     inkscape:label="Layer 1"
     inkscape:groupmode="layer"
     id="layer1">
    <path
       id="path2"
       style="fill:#e32a21;fill-opacity:1;stroke-width:7;stroke-linejoin:round;stroke-dashoffset:4232.81;stroke-opacity:0.995708"
       d="M 41.485323,11.58043 A 11.29499,11.29499 0 0 1 47.939709,21.785492 11.29499,11.29499 0 0 1 36.644792,33.080409 11.29499,11.29499 0 0 1 25.349874,21.785492 11.29499,11.29499 0 0 1 31.818213,11.584564 12.078702,12.078702 0 0 0 24.565942,22.642804 12.078702,12.078702 0 0 0 36.644792,34.721653 12.078702,12.078702 0 0 0 48.723641,22.642804 12.078702,12.078702 0 0 0 41.485323,11.58043 Z" />
    <path
       id="path3"
       style="fill:#e32a21;stroke-width:4.62359;stroke-linejoin:round;stroke-dashoffset:4232.81;stroke-opacity:0.995708"
       d="M 36.644792 5.7634725 C 36.561135 5.7634725 36.453439 16.836763 36.384342 21.119124 A 2.0505209 2.0505209 0 0 0 35.369934 21.550623 L 31.966524 18.472774 L 35.044373 21.876184 A 2.0505209 2.0505209 0 0 0 34.610291 22.922632 C 31.656795 22.966404 25.945703 23.026138 25.945703 23.151042 C 25.945703 23.275946 31.656795 23.335679 34.610291 23.379451 A 2.0505209 2.0505209 0 0 0 35.044373 24.425899 L 31.966524 27.829309 L 35.369934 24.751461 A 2.0505209 2.0505209 0 0 0 36.407597 25.184509 C 36.476155 27.831256 36.569913 32.55977 36.644792 32.55977 C 36.719671 32.55977 36.813428 27.831257 36.881986 25.184509 A 2.0505209 2.0505209 0 0 0 37.919649 24.751461 L 41.323059 27.829309 L 38.245211 24.425899 A 2.0505209 2.0505209 0 0 0 38.679293 23.379451 C 41.632788 23.335679 47.34388 23.275946 47.34388 23.151042 C 47.34388 23.026168 41.636001 22.966401 38.681877 22.922632 A 2.0505209 2.0505209 0 0 0 38.247795 21.8736 L 41.323059 18.472774 L 37.922233 21.548039 A 2.0505209 2.0505209 0 0 0 36.905241 21.117574 C 36.836144 16.834041 36.728438 5.7634725 36.644792 5.7634725 z " />
  </g>
</svg>
