<?xml version="1.0" encoding="UTF-8" standalone="no"?>
<!-- Created with Inkscape (http://www.inkscape.org/) -->

<svg
   width="1280mm"
   height="720mm"
   viewBox="0 0 1280 720"
   version="1.1"
   id="svg1"
   inkscape:export-filename="samsara.png"
   inkscape:export-xdpi="25.4"
   inkscape:export-ydpi="25.4"
   inkscape:version="1.3.2 (091e20e, 2023-11-25, custom)"
   sodipodi:docname="samsara v2.svg"
   xmlns:inkscape="http://www.inkscape.org/namespaces/inkscape"
   xmlns:sodipodi="http://sodipodi.sourceforge.net/DTD/sodipodi-0.dtd"
   xmlns="http://www.w3.org/2000/svg"
   xmlns:svg="http://www.w3.org/2000/svg">
  <sodipodi:namedview
     id="namedview1"
     pagecolor="#505050"
     bordercolor="#ffffff"
     borderopacity="1"
     inkscape:showpageshadow="0"
     inkscape:pageopacity="0"
     inkscape:pagecheckerboard="1"
     inkscape:deskcolor="#d1d1d1"
     inkscape:document-units="mm"
     inkscape:export-bgcolor="#000000ff"
     inkscape:zoom="0.37512223"
     inkscape:cx="2671.1294"
     inkscape:cy="1408.8741"
     inkscape:window-width="3440"
     inkscape:window-height="1369"
     inkscape:window-x="-8"
     inkscape:window-y="-8"
     inkscape:window-maximized="1"
     inkscape:current-layer="g4"
     showgrid="false" />
  <defs
     id="defs1">
    <inkscape:path-effect
       effect="mirror_symmetry"
       start_point="696.20128,48.8601"
       end_point="696.20128,471.89058"
       center_point="696.20128,260.37534"
       id="path-effect3"
       is_visible="true"
       lpeversion="1.2"
       lpesatellites=""
       mode="free"
       discard_orig_path="false"
       fuse_paths="false"
       oposite_fuse="false"
       split_items="false"
       split_open="false"
       link_styles="false" />
    <inkscape:path-effect
       effect="mirror_symmetry"
       start_point="443.98794,89.77331"
       end_point="544.62466,443.27213"
       center_point="494.3063,266.52272"
       id="path-effect2"
       is_visible="true"
       lpeversion="1.2"
       lpesatellites=""
       mode="free"
       discard_orig_path="false"
       fuse_paths="false"
       oposite_fuse="false"
       split_items="false"
       split_open="false"
       link_styles="false" />
    <inkscape:path-effect
       effect="mirror_symmetry"
       start_point="506.72039,231.41561"
       end_point="506.72039,491.75818"
       center_point="506.72039,361.58689"
       id="path-effect1"
       is_visible="true"
       lpeversion="1.2"
       lpesatellites=""
       mode="free"
       discard_orig_path="false"
       fuse_paths="false"
       oposite_fuse="false"
       split_items="false"
       split_open="false"
       link_styles="false" />
    <inkscape:path-effect
       effect="mirror_symmetry"
       start_point="443.98794,89.77331"
       end_point="544.62466,443.27213"
       center_point="494.3063,266.52272"
       id="path-effect2-6"
       is_visible="true"
       lpeversion="1.2"
       lpesatellites=""
       mode="free"
       discard_orig_path="false"
       fuse_paths="false"
       oposite_fuse="false"
       split_items="false"
       split_open="false"
       link_styles="false" />
    <inkscape:path-effect
       effect="mirror_symmetry"
       start_point="554.29601,49.90118"
       end_point="598.89215,404.7617"
       center_point="576.59408,227.33144"
       id="path-effect2-9"
       is_visible="true"
       lpeversion="1.2"
       lpesatellites=""
       mode="free"
       discard_orig_path="false"
       fuse_paths="false"
       oposite_fuse="false"
       split_items="false"
       split_open="false"
       link_styles="false" />
    <inkscape:path-effect
       effect="mirror_symmetry"
       start_point="443.98794,89.77331"
       end_point="544.62466,443.27213"
       center_point="494.3063,266.52272"
       id="path-effect2-5"
       is_visible="true"
       lpeversion="1.2"
       lpesatellites=""
       mode="free"
       discard_orig_path="false"
       fuse_paths="false"
       oposite_fuse="false"
       split_items="false"
       split_open="false"
       link_styles="false" />
    <inkscape:path-effect
       effect="mirror_symmetry"
       start_point="554.29601,49.90118"
       end_point="598.89215,404.7617"
       center_point="576.59408,227.33144"
       id="path-effect2-9-4"
       is_visible="true"
       lpeversion="1.2"
       lpesatellites=""
       mode="free"
       discard_orig_path="false"
       fuse_paths="false"
       oposite_fuse="false"
       split_items="false"
       split_open="false"
       link_styles="false" />
  </defs>
  <g
     inkscape:label="Layer 1"
     inkscape:groupmode="layer"
     id="layer1">
    <g
       id="g4"
       style="fill:#ffffff;fill-opacity:1;stroke:#000000;stroke-opacity:0.83333331">
      <path
         style="opacity:1;fill:none;fill-opacity:1;stroke:#ffffff;stroke-width:7;stroke-linecap:butt;stroke-linejoin:round;stroke-miterlimit:4;stroke-dasharray:none;stroke-dashoffset:4232.81;stroke-opacity:0.995708"
         d="m 668.88558,488.48887 c 25.7497,-102.71482 26.45122,-105.694 25.12034,-106.6805 -2.02475,-1.50079 -105.93242,-1.52402 -107.98363,-0.0241 -1.31096,0.95859 -0.52229,4.31488 24.32219,103.50654 14.1224,56.38371 26.11559,104.04223 26.65151,105.90786 0.92162,3.20818 1.09437,3.38019 3.1873,3.17394 l 2.21287,-0.21804 z M 559.5666,516.88202 c 5.60668,-0.40192 10.62101,-1.08516 11.14293,-1.51831 2.2924,-1.90251 0.55589,-3.57962 -10.75703,-10.38899 -17.64303,-10.61958 -30.55041,-20.41904 -42.3282,-32.13619 -18.94811,-18.85053 -28.76066,-37.2241 -29.75814,-55.72075 -1.14665,-21.26294 9.0239,-40.47558 32.76804,-61.90035 33.48995,-30.21859 50.93493,-63.91855 56.68004,-109.49377 1.15875,-9.19224 1.17396,-38.05987 0.0251,-47.96214 -2.39176,-20.61801 -6.32733,-38.64504 -12.60949,-57.75826 -4.51456,-13.73537 -6.17064,-16.21772 -8.95908,-13.42925 -0.8047,0.8047 -1.10837,2.51581 -1.10837,6.2455 0,2.82543 -0.32485,9.23003 -0.72191,14.23246 -4.87379,61.40616 -24.92555,115.75508 -56.45436,153.01578 -2.64184,3.12215 -9.36082,10.10487 -14.93104,15.51717 -12.2377,11.89071 -18.16315,18.7494 -24.6221,28.49993 -9.35117,14.11663 -15.90289,29.78578 -19.46061,46.54208 -1.68005,7.91274 -1.88047,10.3627 -1.87867,22.96425 0.003,15.49987 1.05124,22.5257 5.2343,35.05671 3.82664,11.46326 11.41217,24.69181 19.02815,33.18354 2.00056,2.23059 3.35105,4.05561 3.00106,4.05561 -0.34996,0 -4.42217,-2.48269 -9.04931,-5.51712 -24.03731,-15.76337 -38.86512,-32.75753 -44.72696,-51.26159 -1.93466,-6.10714 -2.6869,-19.12472 -1.49926,-25.94467 2.51793,-14.45903 9.56868,-27.91516 23.86269,-45.54119 13.49706,-16.64325 19.76821,-29.10018 22.48873,-44.67125 3.80667,-21.78757 -4.91143,-44.10646 -25.03304,-64.08605 -18.69329,-18.56137 -45.37464,-34.77681 -79.52441,-48.33051 -9.90741,-3.93217 -12.01645,-4.54712 -13.41274,-3.91094 -3.1337,1.42782 -2.04644,3.30718 4.86746,8.4135 32.66427,24.12446 54.0149,50.36779 59.89503,73.6206 1.15091,4.55117 1.38006,7.25619 1.14641,13.53208 -0.47085,12.6473 -3.99407,20.72019 -13.96095,31.98921 -15.25984,17.25347 -23.25852,32.01334 -27.24042,50.26649 -1.85462,8.50156 -1.8556,29.57806 -0.003,38.08759 8.52913,39.15103 37.22775,70.08831 79.88951,86.12137 14.99288,5.63459 35.16545,9.78085 53.15151,10.92473 4.94916,0.31474 10.293,1.25449 16.10897,2.83281 10.94496,2.97024 21.16611,4.42169 35.73248,5.07426 1.5517,0.0695 7.4086,-0.20243 13.01528,-0.60434 z m 192.49538,-1.0261 c 7.09922,-1.00904 18.84894,-3.69525 22.88445,-5.23179 1.09204,-0.4158 4.10924,-0.756 6.70491,-0.756 13.15958,0 35.15275,-3.94885 50.97296,-9.15212 45.74513,-15.04558 77.0451,-47.49173 85.74812,-88.88815 1.77586,-8.44724 1.78771,-27.691 0.022,-35.88326 -3.93277,-18.24707 -11.14824,-32.84308 -22.8156,-46.1531 -8.58613,-9.79506 -10.78894,-12.73466 -13.63837,-18.20032 -3.56664,-6.84135 -4.92056,-12.64357 -4.93369,-21.14284 -0.014,-9.05216 1.79689,-15.85316 7.02554,-26.38621 5.61967,-11.32072 11.85391,-19.78215 23.29301,-31.61443 11.77592,-12.18065 19.18952,-18.52337 35.62988,-30.48336 1.66092,-1.20825 1.89854,-1.76121 1.47759,-3.4384 -0.46479,-1.85183 -0.70093,-1.97188 -3.21543,-1.63461 -4.1299,0.55393 -21.47096,7.66724 -35.65535,14.62583 -70.12072,34.39983 -96.07465,78.1465 -73.29496,123.5423 3.71383,7.40095 8.65167,14.72218 16.57432,24.57429 7.78262,9.67801 12.1143,16.35069 16.2415,25.01908 5.26056,11.04879 6.63536,17.11023 6.56358,28.93835 -0.0531,8.75596 -0.27996,10.5537 -2.00187,15.86981 -2.31502,7.14714 -6.32748,14.87141 -11.00082,21.17736 -3.90776,5.27291 -15.9417,17.1641 -22.25061,21.98666 -5.25954,4.02043 -19.38885,13.26203 -20.27605,13.26203 -0.35653,0 0.5107,-1.28281 1.92722,-2.85073 23.08601,-25.55345 31.26841,-62.55631 21.90697,-99.06881 -6.70189,-26.1394 -17.63656,-43.85513 -42.01117,-68.06393 -7.6164,-7.56462 -16.383,-16.96207 -19.4813,-20.88323 -31.52119,-39.89274 -49.92698,-94.8839 -53.49459,-159.82629 -0.47713,-8.68523 -1.10168,-10.2464 -3.76143,-9.40224 -3.71684,1.17969 -14.01781,37.26147 -17.32475,60.6845 -4.38759,31.07708 -3.11801,60.0076 3.77867,86.10727 5.93585,22.46344 17.45094,44.90919 31.97063,62.31859 2.7708,3.32226 8.54491,9.37312 12.83132,13.44639 25.7761,24.49427 31.92901,32.59854 37.48476,49.37278 1.81285,5.47343 1.98496,6.88544 1.97736,16.2225 -0.007,9.11926 -0.21703,10.9093 -1.93489,16.52336 -8.34665,27.27693 -36.04035,55.62886 -76.80145,78.62687 -2.2306,1.25851 -4.09324,2.66168 -4.1392,3.11811 -0.11991,1.19097 0.16288,2.8897 0.54658,3.28303 1.51648,1.55467 32.23448,1.81557 42.47009,0.36071 z M 652.94092,371.22358 c 17.62895,-4.51273 32.19188,-19.09045 36.94406,-36.98155 1.66063,-6.25197 1.65285,-19.18936 -0.0154,-25.39172 -4.90558,-18.23968 -19.02288,-32.3628 -37.16689,-37.18216 -6.25195,-1.66063 -19.18936,-1.65284 -25.39172,0.0153 -18.20085,4.89513 -32.42879,19.12238 -37.16867,37.16688 -1.64623,6.26712 -1.61676,19.20991 0.0578,25.39171 5.39586,19.91902 21.90322,34.90293 41.95609,38.08405 5.21901,0.82793 15.34078,0.29104 20.78456,-1.1025 z"
         id="path5"
         sodipodi:nodetypes="sssssscsssssssscssscsssscsssssssssssssssscssssssssssssssssssssssssssssssssssssssssssssssssscsssssss" />
      <path
         style="font-variation-settings:normal;opacity:1;fill:#ffffff;fill-opacity:1;stroke:#000000;stroke-width:5;stroke-linecap:butt;stroke-linejoin:round;stroke-miterlimit:4;stroke-dasharray:none;stroke-dashoffset:1119.93;stroke-opacity:0.833333;stop-color:#000000;stop-opacity:1"
         d="m 462.83123,416.94711 c 0,0 -163.5869,-30.92194 -91.76827,-140.64486 71.81866,-109.72291 -23.93953,-226.428194 -23.93953,-226.428194 0,0 35.10579,115.750354 -19.28407,203.001134 -59.60959,95.62412 12.363,215.04976 134.99187,164.07192 z m 137.45753,-39.13245 c 0,0 122.77217,-112.44481 3.93233,-167.88963 C 485.38124,154.48023 505.31394,4.8391845 505.31394,4.8391845 c 0,0 31.12242,116.8843655 123.31097,162.4060955 101.03576,49.89039 102.75498,189.31629 -28.33615,210.56938 z"
         id="path1"
         transform="rotate(15.848547,169.57476,845.11419)"
         sodipodi:nodetypes="cscsc"
         inkscape:original-d="m 462.83123,416.94711 c 0,0 -163.5869,-30.92194 -91.76827,-140.64486 71.81866,-109.72291 -23.93953,-226.428194 -23.93953,-226.428194 0,0 35.10579,115.750354 -19.28407,203.001134 -59.60959,95.62412 12.363,215.04976 134.99187,164.07192 z"
         inkscape:path-effect="#path-effect2" />
      <path
         style="fill:#ffffff;fill-opacity:1;stroke:#000000;stroke-width:4.99999;stroke-linejoin:round;stroke-dashoffset:1119.93;stroke-opacity:0.833333"
         d="m 462.83123,416.94711 c 0,0 -163.5869,-30.92194 -91.76827,-140.64486 71.81866,-109.72291 -110.67407,-144.45504 -110.67407,-144.45504 0,0 115.77527,56.28692 67.45047,121.02798 -53.15784,71.21592 5.29494,176.80199 134.99187,164.07192 z m 270.90602,-34.04538 c 0,0 150.84878,-70.4378 54.11394,-158.97822 -96.73486,-88.5404 71.48908,-167.347901 71.48908,-167.347901 0,0 -98.24768,83.183681 -35.40627,133.954221 69.12628,55.8482 38.61701,172.61433 -90.19675,192.3719 z"
         id="path1-2"
         transform="rotate(7.1925529,-234.88721,784.1985)"
         sodipodi:nodetypes="cscsc"
         inkscape:original-d="m 462.83123,416.94711 c 0,0 -163.5869,-30.92194 -91.76827,-140.64486 71.81866,-109.72291 -110.67407,-144.45504 -110.67407,-144.45504 0,0 115.77527,56.28692 67.45047,121.02798 -53.15784,71.21592 5.29494,176.80199 134.99187,164.07192 z"
         inkscape:path-effect="#path-effect2-9" />
      <circle
         style="font-variation-settings:normal;opacity:1;fill:#ffffff;fill-opacity:1;stroke:#000000;stroke-width:5;stroke-linecap:butt;stroke-linejoin:round;stroke-miterlimit:4;stroke-dasharray:none;stroke-dashoffset:4232.81;stroke-opacity:0.833333"
         id="path3"
         cx="640"
         cy="321.50433"
         r="48.554535" />
      <path
         id="rect4"
         style="opacity:1;fill:#ffffff;fill-opacity:1;stroke:#000000;stroke-width:5;stroke-linejoin:round;stroke-dasharray:none;stroke-dashoffset:4232.81;stroke-opacity:0.833333"
         d="M 587.86029,383.88497 H 692.13971 L 640,591.98416 Z"
         sodipodi:nodetypes="cccc" />
    </g>
  </g>
</svg>
